<svg width="32" height="33" viewBox="0 0 32 33" fill="none" xmlns="http://www.w3.org/2000/svg">
<g id="game">
<path id="Vector" d="M12.1138 15.4931C12.6746 15.4931 13.1292 15.9444 13.1292 16.5011V17.8257H14.4752C14.8619 17.7841 15.2386 17.9655 15.4451 18.2928C15.6516 18.6201 15.6516 19.0357 15.4451 19.363C15.2386 19.6902 14.8619 19.8717 14.4752 19.8301H13.1292V21.1663C13.1228 21.7204 12.6719 22.1681 12.1138 22.1744C11.5458 22.168 11.0983 21.7185 11.0983 21.1663V19.8301H9.75231C9.36558 19.8717 8.9889 19.6902 8.78242 19.363C8.57593 19.0357 8.57593 18.6201 8.78242 18.2928C8.9889 17.9655 9.36558 17.7841 9.75231 17.8257H11.0983V16.5011L11.1076 16.3643C11.1748 15.8723 11.5997 15.4931 12.1138 15.4931ZM21.5596 20.4396C21.8474 20.1534 22.2797 20.0657 22.6576 20.2169C22.779 20.2732 22.8906 20.3484 22.9882 20.4396C23.3764 20.83 23.3736 21.4585 22.982 21.8455C22.5904 22.2325 21.9574 22.2325 21.5658 21.8455C21.1742 21.4585 21.1714 20.83 21.5596 20.4396ZM19.6232 15.751C19.8652 15.652 20.1368 15.652 20.3788 15.751C20.5052 15.8048 20.621 15.8802 20.7212 15.9737C20.9085 16.1607 21.0145 16.4132 21.0164 16.677C21.018 16.8092 20.9939 16.9405 20.9456 17.0638C20.899 17.1897 20.8219 17.3024 20.7212 17.392C20.3245 17.7671 19.7011 17.7671 19.3044 17.392C19.1071 17.2081 18.9953 16.9514 18.9953 16.6828C18.9953 16.4142 19.1071 16.1576 19.3044 15.9737C19.3932 15.8774 19.5019 15.8014 19.6232 15.751ZM29.3285 15.5452C29.1498 11.4398 25.6725 8.29718 21.4818 8.32651C20.9685 8.33451 20.5578 8.75451 20.5645 9.26918C20.5711 9.78118 20.9898 10.2025 21.5058 10.1865C24.7685 10.1212 27.3311 12.4812 27.4685 15.6238C27.4751 15.7465 27.4765 15.8705 27.4725 16.0172V21.8025C27.5071 23.3238 26.9458 24.7652 25.8951 25.8625C24.8445 26.9625 23.4285 27.5852 21.9058 27.6185C21.7818 27.6212 21.6565 27.6185 21.4778 27.6132C17.7778 27.6758 14.0938 27.6758 10.4698 27.6145C7.30579 27.7505 4.67112 25.3118 4.53379 22.1785C4.52845 22.0532 4.52712 21.9278 4.52979 21.7825V15.9958C4.46179 12.8572 6.95912 10.2492 10.1005 10.1825C10.2231 10.1785 10.3485 10.1825 10.5111 10.1865H16.7605C17.2738 10.1865 17.6911 9.77051 17.6911 9.25585V8.00918C17.6645 6.07851 16.0818 4.51984 14.1631 4.51984H14.1365H12.8165H12.8085C12.6125 4.51984 12.4271 4.44384 12.2858 4.30518C12.1418 4.16651 12.0618 3.97851 12.0605 3.77851C12.0551 3.26784 11.6391 2.85718 11.1311 2.85718H11.1205C10.6071 2.86251 10.1951 3.28384 10.2005 3.79718C10.2085 4.49318 10.4858 5.14651 10.9831 5.63318C11.4818 6.12384 12.1378 6.35184 12.8271 6.38118H14.1431H14.1565C15.0685 6.38118 15.8191 7.11984 15.8298 8.01984V8.32651L10.5511 8.32784C10.3845 8.32118 10.2191 8.31851 10.0565 8.32118C5.89379 8.41184 2.57912 11.8732 2.66979 16.0172V21.7638C2.66712 21.9278 2.66845 22.0918 2.67512 22.2572C2.85779 26.4172 6.38179 29.6772 10.4951 29.4732C12.2831 29.5052 14.1031 29.5198 15.9311 29.5198C17.7698 29.5198 19.6165 29.5052 21.4538 29.4718C21.6205 29.4785 21.7858 29.4812 21.9498 29.4772C23.9658 29.4332 25.8445 28.6078 27.2391 27.1492C28.6338 25.6918 29.3778 23.7785 29.3325 21.7825V16.0398C29.3365 15.8758 29.3351 15.7105 29.3285 15.5452Z" fill="#000958"/>
</g>
</svg>
