<svg width="25" height="25" viewBox="0 0 25 25" fill="none" xmlns="http://www.w3.org/2000/svg">
<g id="Python" clip-path="url(#clip0_466_154346)">
<path id="Vector" d="M5.36578 18.0585H4.16578C2.46178 18.0585 1.25378 16.9375 0.763781 14.9025C0.229781 12.6735 0.229781 11.3165 0.763781 9.0925C1.21878 7.1935 2.68278 6.0585 4.67978 6.0585H6.73878C6.60617 6.0585 6.479 6.00582 6.38523 5.91205C6.29146 5.81828 6.23878 5.69111 6.23878 5.5585V3.6375C6.23878 1.8715 6.75478 0.757499 9.39378 0.291499C11.1358 -0.0175013 13.1958 -0.0205013 15.0438 0.285499C16.7588 0.575499 17.8658 1.8885 17.8658 3.6335V8.8645C17.8658 10.6015 16.8348 11.5575 14.9618 11.5575H9.47978C7.81278 11.5575 5.86578 12.4755 5.86578 15.0615V17.5585C5.86578 17.6911 5.8131 17.8183 5.71933 17.9121C5.62557 18.0058 5.49839 18.0585 5.36578 18.0585ZM4.67978 7.0585C3.15478 7.0585 2.08178 7.8845 1.73678 9.3265C1.23878 11.3955 1.23878 12.5945 1.73678 14.6695C1.99878 15.7585 2.63378 17.0585 4.16578 17.0585H4.86578V15.0625C4.86578 11.9515 7.18278 10.5585 9.47978 10.5585H14.9618C16.2958 10.5585 16.8658 10.0515 16.8658 8.8655V3.6335C16.8658 2.3835 16.1048 1.4785 14.8788 1.2725C13.1388 0.986499 11.2028 0.985499 9.56678 1.2775C7.46778 1.6475 7.23878 2.3125 7.23878 3.6375V5.0585H12.2278C12.3604 5.0585 12.4876 5.11118 12.5813 5.20495C12.6751 5.29871 12.7278 5.42589 12.7278 5.5585V6.5585C12.7278 6.69111 12.6751 6.81828 12.5813 6.91205C12.4876 7.00582 12.3604 7.0585 12.2278 7.0585H4.67978Z" fill="#000958"/>
<path id="Vector_2" d="M9.86719 4.58359C9.04019 4.58359 8.36719 3.90659 8.36719 3.07359C8.37519 2.23659 9.04819 1.55859 9.86719 1.55859C10.6942 1.55859 11.3672 2.23859 11.3672 3.07359C11.3672 3.90659 10.6942 4.58359 9.86719 4.58359ZM9.86719 2.55859C9.80017 2.55976 9.73404 2.57416 9.6726 2.60095C9.61116 2.62774 9.55562 2.66641 9.50916 2.71472C9.46271 2.76304 9.42625 2.82006 9.40188 2.8825C9.37752 2.94494 9.36573 3.01158 9.36719 3.07859C9.36719 3.35459 9.59119 3.58459 9.86719 3.58459C10.1432 3.58459 10.3672 3.35459 10.3672 3.07359C10.3675 2.93949 10.3154 2.81058 10.222 2.71436C10.1286 2.61814 10.0012 2.56225 9.86719 2.55859ZM12.5352 24.0586C11.5819 24.0603 10.63 23.9841 9.68919 23.8306C7.97419 23.5416 6.86719 22.2286 6.86719 20.4836V15.2526C6.86719 13.5156 7.89819 12.5596 9.77119 12.5596H15.2532C16.9202 12.5596 18.8672 11.6416 18.8672 9.05559V6.55859C18.8672 6.42599 18.9199 6.29881 19.0136 6.20504C19.1074 6.11127 19.2346 6.05859 19.3672 6.05859H20.5672C22.2712 6.05859 23.4792 7.17959 23.9692 9.21459C24.5032 11.4436 24.5032 12.8006 23.9692 15.0246C23.5142 16.9236 22.0502 18.0586 20.0532 18.0586H13.0052H17.9942C18.1268 18.0586 18.254 18.1113 18.3477 18.205C18.4415 18.2988 18.4942 18.426 18.4942 18.5586V20.4796C18.4942 22.2456 17.9782 23.3596 15.3392 23.8256C14.4622 23.9806 13.5052 24.0586 12.5352 24.0586ZM9.77119 13.5586C8.43719 13.5586 7.86719 14.0656 7.86719 15.2516V20.4826C7.86719 21.7326 8.62819 22.6376 9.85419 22.8436C11.5942 23.1306 13.5302 23.1296 15.1662 22.8386C17.2652 22.4686 17.4942 21.8036 17.4942 20.4786V19.0586H12.5052C12.3726 19.0586 12.2454 19.0059 12.1516 18.9121C12.0579 18.8184 12.0052 18.6912 12.0052 18.5586V17.5586C12.0052 17.426 12.0579 17.2988 12.1516 17.205C12.2454 17.1113 12.3726 17.0586 12.5052 17.0586H20.0532C21.5782 17.0586 22.6512 16.2326 22.9962 14.7906C23.4942 12.7216 23.4942 11.5226 22.9962 9.44759C22.7342 8.35859 22.0992 7.05859 20.5672 7.05859H19.8672V9.05459C19.8672 12.1656 17.5502 13.5586 15.2532 13.5586H9.77119Z" fill="#000958"/>
<path id="Vector_3" d="M14.8672 22.5587C14.0402 22.5587 13.3672 21.8787 13.3672 21.0437C13.3672 20.2107 14.0402 19.5327 14.8672 19.5327C15.6942 19.5327 16.3672 20.2107 16.3672 21.0437C16.3592 21.8807 15.6862 22.5587 14.8672 22.5587ZM14.8672 20.5337C14.5912 20.5337 14.3672 20.7627 14.3672 21.0447C14.3672 21.3237 14.5962 21.5597 14.8672 21.5597C14.9342 21.5585 15.0003 21.5442 15.0618 21.5174C15.1232 21.4906 15.1788 21.4519 15.2252 21.4036C15.2717 21.3553 15.3081 21.2983 15.3325 21.2358C15.3569 21.1734 15.3686 21.1067 15.3672 21.0397C15.3675 20.9065 15.3151 20.7785 15.2214 20.6837C15.1277 20.589 15.0004 20.535 14.8672 20.5337Z" fill="#000958"/>
</g>
<defs>
<clipPath id="clip0_466_154346">
<rect width="24" height="24" fill="white" transform="translate(0.367188 0.0585938)"/>
</clipPath>
</defs>
</svg>
